<?xml version="1.0" ?><svg viewBox="0 0 64 64" xmlns="http://www.w3.org/2000/svg"><title/><g data-name="Day 9" id="b15d92d9-ff1f-43c0-899d-73fed4eaff47"><path d="M60.87,37.72a11,11,0,0,1-17.94,6.7.86.86,0,0,0-.8-.17A18.08,18.08,0,0,1,37,45a17.87,17.87,0,0,1-7.06-1.46.88.88,0,0,0-.93.16A9,9,0,0,1,23,46a8.79,8.79,0,0,1-3.17-.58,8.67,8.67,0,0,1-2.58-1.51,8.86,8.86,0,0,1-2.2-2.7.89.89,0,0,0-1-.45,9,9,0,0,1-3.08.18,8.51,8.51,0,0,1-2.13-.52,9.09,9.09,0,0,1-5.76-7.16A4.5,4.5,0,0,1,3,32.73a9,9,0,0,1,5.3-8.94,3.71,3.71,0,0,0,1.84-1.72A11,11,0,0,1,20,16a11.16,11.16,0,0,1,2,.19.85.85,0,0,0,.85-.31,17.93,17.93,0,0,1,26.78-1.65,18.14,18.14,0,0,1,3.83,5.58,17.78,17.78,0,0,1,1.13,3.58c.09.44.16.88.22,1.33a3.2,3.2,0,0,0,1.4,2.22,11,11,0,0,1,4.64,10.78Z" data-name="&lt;Path&gt;" fill="#aecad4" id="f6cdd66c-ad8b-4c45-beb1-823ad9ed87a5"/><path d="M59.87,34.72a11,11,0,0,1-17.94,6.7.86.86,0,0,0-.8-.17A18.08,18.08,0,0,1,36,42a17.83,17.83,0,0,1-7.06-1.46.88.88,0,0,0-.93.16A9,9,0,0,1,22,43a8.79,8.79,0,0,1-3.17-.58,8.67,8.67,0,0,1-2.58-1.51,8.86,8.86,0,0,1-2.2-2.7.89.89,0,0,0-1-.45,9,9,0,0,1-3.08.18,8.51,8.51,0,0,1-2.13-.52,9.15,9.15,0,0,1-4.76-4.16A4.5,4.5,0,0,1,3,32.73a9,9,0,0,1,5.3-8.94,3.71,3.71,0,0,0,1.84-1.72A11,11,0,0,1,20,16a11.16,11.16,0,0,1,2,.19.85.85,0,0,0,.85-.31,17.93,17.93,0,0,1,26.78-1.65,18.14,18.14,0,0,1,3.83,5.58,16.94,16.94,0,0,1,.35,1.91,3.05,3.05,0,0,0,.78,1.67,3.26,3.26,0,0,0,.62.55,11,11,0,0,1,4.6,7.12A11.21,11.21,0,0,1,59.87,34.72Z" data-name="&lt;Path&gt;" fill="#d4dfe3" id="03fa1f1a-3d45-41ab-b7e3-07d9e4c1b018"/><path d="M56.23,26.94a3.2,3.2,0,0,1-1.4-2.23,18,18,0,0,0-32.29-8.41,10.94,10.94,0,0,0-12.9,7,9,9,0,1,0,5.1,17.25,9,9,0,0,0,14.68,2.74,17.86,17.86,0,0,0,13.17.8A11,11,0,1,0,56.23,26.94Z" data-name="&lt;Path&gt;" fill="none" id="559dda39-9c71-4c09-a541-689deb28a932" stroke="#001c63" stroke-linecap="round" stroke-linejoin="round" stroke-width="2"/><path d="M49.29,19a18,18,0,0,0-8.12-6" data-name="&lt;Path&gt;" fill="none" id="ae0c7163-4ea6-4200-85c4-ca5aac78d19a" stroke="#e6eff2" stroke-linecap="round" stroke-linejoin="round" stroke-width="2"/><g data-name="&lt;Group&gt;" id="e96764c3-4553-4ea3-abba-201ab7949e08"><path d="M42,23a6.83,6.83,0,0,0,4.58,3.33" data-name="&lt;Path&gt;" fill="none" id="b376028f-00d8-4a82-b5d7-cc89c72757b1" stroke="#001c63" stroke-linecap="round" stroke-linejoin="round" stroke-width="2"/></g><g data-name="&lt;Group&gt;" id="70de060b-0bdf-484b-aaa7-8164639fbdc6"><path d="M31.5,23a6.83,6.83,0,0,1-4.58,3.33" data-name="&lt;Path&gt;" fill="none" id="9b04ea6e-a67e-48ad-a5bd-aee45a967dd0" stroke="#001c63" stroke-linecap="round" stroke-linejoin="round" stroke-width="2"/></g><circle cx="30.5" cy="26.5" data-name="&lt;Path&gt;" fill="#001c63" id="45501846-d92b-4860-b139-718fdf1c83ac" r="1.5"/><circle cx="27.5" cy="30.5" data-name="&lt;Path&gt;" fill="#aecad4" id="792aee68-2cbe-437d-8842-06853490b90f" r="1.5"/><circle cx="47.5" cy="30.5" data-name="&lt;Path&gt;" fill="#aecad4" id="53a12235-6445-445d-8255-466a2096b678" r="1.5"/><circle cx="43.5" cy="26.5" data-name="&lt;Path&gt;" fill="#001c63" id="afe8f2eb-5586-4d05-834f-64e4addbea3a" r="1.5"/><rect data-name="&lt;Rectangle&gt;" fill="#001c63" height="5" id="1893b022-19f0-4a54-aebf-734cafdb5769" rx="1.5" ry="1.5" width="3" x="36" y="30"/><path d="M21,53a2,2,0,0,1-4,0c0-1.1.9-5,2-5S21,51.9,21,53Z" data-name="&lt;Path&gt;" fill="#a2e6ff" id="1f1c513c-ae3a-457a-b626-407ecfca9fe7" stroke="#001c63" stroke-linecap="round" stroke-linejoin="round" stroke-width="2"/><path d="M32,47a2,2,0,0,1-4,0c0-1.1.9-5,2-5S32,45.9,32,47Z" data-name="&lt;Path&gt;" fill="#a2e6ff" id="1ae2c98e-134b-47cc-951d-e57b56ce5f2e" stroke="#001c63" stroke-linecap="round" stroke-linejoin="round" stroke-width="2"/><path d="M40,54a2,2,0,0,1-4,0c0-1.1.9-5,2-5S40,52.9,40,54Z" data-name="&lt;Path&gt;" fill="#a2e6ff" id="02a61848-eb7f-4887-bacc-c3af341f9024" stroke="#001c63" stroke-linecap="round" stroke-linejoin="round" stroke-width="2"/><path d="M51,49a2,2,0,0,1-4,0c0-1.1.9-5,2-5S51,47.9,51,49Z" data-name="&lt;Path&gt;" fill="#a2e6ff" id="ca670253-963f-4104-b729-cc196cd6daa4" stroke="#001c63" stroke-linecap="round" stroke-linejoin="round" stroke-width="2"/><circle cx="51" cy="22" data-name="&lt;Path&gt;" fill="#e6eff2" id="cf546db4-c96a-499a-bb20-ffb533d6e86b" r="1"/></g></svg>