{
  "accessors": [
    {
      "bufferView": 2,
      "componentType": 5126,
      "count": 11872,
      "max": [
        2.178293228149414,
        0.19150394201278687,
        0.36451655626296997
      ],
      "min": [
        -2.214831590652466,
        -0.17322681844234467,
        -0.3367254436016083
      ],
      "type": "VEC3"
    },
    {
      "bufferView": 2,
      "byteOffset": 142464,
      "componentType": 5126,
      "count": 11872,
      "max": [
        0.9974281191825867,
        1.0,
        0.999915361404419
      ],
      "min": [
        -0.9952325820922852,
        -1.0,
        -0.9999138116836548
      ],
      "type": "VEC3"
    },
    {
      "bufferView": 1,
      "componentType": 5126,
      "count": 11872,
      "max": [
        0.5364621877670288,
        0.9852055311203003
      ],
      "min": [
        0.011312441900372505,
        0.01131244096904993
      ],
      "type": "VEC2"
    },
    {
      "bufferView": 0,
      "componentType": 5125,
      "count": 61872,
      "type": "SCALAR"
    },
    {
      "bufferView": 2,
      "byteOffset": 284928,
      "componentType": 5126,
      "count": 2504,
      "max": [
        0.24283979833126068,
        0.06681545823812485,
        -0.371317595243454
      ],
      "min": [
        -0.24283979833126068,
        0.042226895689964294,
        -0.6219432353973389
      ],
      "type": "VEC3"
    },
    {
      "bufferView": 2,
      "byteOffset": 314976,
      "componentType": 5126,
      "count": 2504,
      "max": [
        0.9988947510719299,
        0.9974865913391113,
        0.999879002571106
      ],
      "min": [
        -0.9988948106765747,
        -0.6524834632873535,
        -0.9998792409896851
      ],
      "type": "VEC3"
    },
    {
      "bufferView": 1,
      "byteOffset": 94976,
      "componentType": 5126,
      "count": 2504,
      "max": [
        0.6900835037231445,
        0.6772822737693787
      ],
      "min": [
        0.6510573029518127,
        0.08826491236686707
      ],
      "type": "VEC2"
    },
    {
      "bufferView": 0,
      "byteOffset": 247488,
      "componentType": 5125,
      "count": 13056,
      "type": "SCALAR"
    },
    {
      "bufferView": 2,
      "byteOffset": 345024,
      "componentType": 5126,
      "count": 2760,
      "max": [
        0.14365637302398682,
        0.23614642024040222,
        -0.38123106956481934
      ],
      "min": [
        0.049292925745248795,
        -0.238717719912529,
        -0.6109362244606018
      ],
      "type": "VEC3"
    },
    {
      "bufferView": 2,
      "byteOffset": 378144,
      "componentType": 5126,
      "count": 2760,
      "max": [
        0.999933660030365,
        0.9986363649368286,
        0.9999944567680359
      ],
      "min": [
        -0.9999287128448486,
        -0.9986363053321838,
        -0.9999170899391174
      ],
      "type": "VEC3"
    },
    {
      "bufferView": 1,
      "byteOffset": 115008,
      "componentType": 5126,
      "count": 2760,
      "max": [
        0.7040613889694214,
        0.7012640833854675
      ],
      "min": [
        0.44273003935813904,
        0.01131244283169508
      ],
      "type": "VEC2"
    },
    {
      "bufferView": 0,
      "byteOffset": 299712,
      "componentType": 5125,
      "count": 12672,
      "type": "SCALAR"
    },
    {
      "bufferView": 2,
      "byteOffset": 411264,
      "componentType": 5126,
      "count": 644,
      "max": [
        0.5418550968170166,
        0.04447467252612114,
        0.19453240931034088
      ],
      "min": [
        0.17830105125904083,
        -0.12335239350795746,
        -0.1945323944091797
      ],
      "type": "VEC3"
    },
    {
      "bufferView": 2,
      "byteOffset": 418992,
      "componentType": 5126,
      "count": 644,
      "max": [
        0.9648581743240356,
        0.9999491572380066,
        0.9992212057113647
      ],
      "min": [
        -0.996332049369812,
        -0.9999492168426514,
        -0.9992212057113647
      ],
      "type": "VEC3"
    },
    {
      "bufferView": 1,
      "byteOffset": 137088,
      "componentType": 5126,
      "count": 644,
      "max": [
        0.6107925772666931,
        0.5220962762832642
      ],
      "min": [
        0.5546804070472717,
        0.4362993538379669
      ],
      "type": "VEC2"
    },
    {
      "bufferView": 0,
      "byteOffset": 350400,
      "componentType": 5125,
      "count": 3312,
      "type": "SCALAR"
    },
    {
      "bufferView": 2,
      "byteOffset": 426720,
      "componentType": 5126,
      "count": 748,
      "max": [
        0.15283805131912231,
        0.20360171794891357,
        0.5024065971374512
      ],
      "min": [
        0.029089337214827538,
        -0.20616519451141357,
        -0.2909773290157318
      ],
      "type": "VEC3"
    },
    {
      "bufferView": 2,
      "byteOffset": 435696,
      "componentType": 5126,
      "count": 748,
      "max": [
        0.9989043474197388,
        0.99986332654953,
        0.9989972710609436
      ],
      "min": [
        -0.999501645565033,
        -0.99986332654953,
        -0.9989967942237854
      ],
      "type": "VEC3"
    },
    {
      "bufferView": 1,
      "byteOffset": 142240,
      "componentType": 5126,
      "count": 748,
      "max": [
        0.6384416222572327,
        0.5968619585037231
      ],
      "min": [
        0.3677780032157898,
        0.01131244096904993
      ],
      "type": "VEC2"
    },
    {
      "bufferView": 0,
      "byteOffset": 363648,
      "componentType": 5125,
      "count": 3456,
      "type": "SCALAR"
    },
    {
      "bufferView": 2,
      "byteOffset": 444672,
      "componentType": 5126,
      "count": 7622,
      "max": [
        0.047698888927698135,
        0.03397435322403908,
        0.5519964694976807
      ],
      "min": [
        -0.04472437500953674,
        -0.031386539340019226,
        -0.548003077507019
      ],
      "type": "VEC3"
    },
    {
      "bufferView": 2,
      "byteOffset": 536136,
      "componentType": 5126,
      "count": 7622,
      "max": [
        0.9999750256538391,
        1.0,
        0.999482274055481
      ],
      "min": [
        -0.9999759197235107,
        -1.0,
        -0.9999476075172424
      ],
      "type": "VEC3"
    },
    {
      "bufferView": 1,
      "byteOffset": 148224,
      "componentType": 5126,
      "count": 7622,
      "max": [
        0.6891794204711914,
        0.6936855316162109
      ],
      "min": [
        0.4183104634284973,
        0.01131244283169508
      ],
      "type": "VEC2"
    },
    {
      "bufferView": 0,
      "byteOffset": 377472,
      "componentType": 5125,
      "count": 38904,
      "type": "SCALAR"
    },
    {
      "bufferView": 2,
      "byteOffset": 627600,
      "componentType": 5126,
      "count": 6655,
      "max": [
        0.006559019908308983,
        0.00685659795999527,
        0.3327864706516266
      ],
      "min": [
        -0.007696951739490032,
        -0.007399291265755892,
        -0.3287966549396515
      ],
      "type": "VEC3"
    },
    {
      "bufferView": 2,
      "byteOffset": 707460,
      "componentType": 5126,
      "count": 6655,
      "max": [
        1.0,
        1.0,
        1.0
      ],
      "min": [
        -1.0,
        -1.0,
        -1.0
      ],
      "type": "VEC3"
    },
    {
      "bufferView": 1,
      "byteOffset": 209200,
      "componentType": 5126,
      "count": 6655,
      "max": [
        0.6937621831893921,
        0.6932995915412903
      ],
      "min": [
        0.3677780032157898,
        0.011312441900372505
      ],
      "type": "VEC2"
    },
    {
      "bufferView": 0,
      "byteOffset": 533088,
      "componentType": 5125,
      "count": 35328,
      "type": "SCALAR"
    },
    {
      "bufferView": 2,
      "byteOffset": 787320,
      "componentType": 5126,
      "count": 46848,
      "max": [
        0.0018402844434604049,
        0.007721884176135063,
        0.32488349080085754
      ],
      "min": [
        -0.007110391743481159,
        0.003149162046611309,
        -0.32424265146255493
      ],
      "type": "VEC3"
    },
    {
      "bufferView": 2,
      "byteOffset": 1349496,
      "componentType": 5126,
      "count": 46848,
      "max": [
        0.9973480105400085,
        0.9999982714653015,
        0.9947227835655212
      ],
      "min": [
        -0.9990347623825073,
        -0.9999997615814209,
        -0.9947167634963989
      ],
      "type": "VEC3"
    },
    {
      "bufferView": 1,
      "byteOffset": 262440,
      "componentType": 5126,
      "count": 46848,
      "max": [
        0.7307595610618591,
        0.7304510474205017
      ],
      "min": [
        0.3677780032157898,
        0.011312443763017654
      ],
      "type": "VEC2"
    },
    {
      "bufferView": 0,
      "byteOffset": 674400,
      "componentType": 5125,
      "count": 70272,
      "type": "SCALAR"
    },
    {
      "bufferView": 2,
      "byteOffset": 1911672,
      "componentType": 5126,
      "count": 4,
      "max": [
        1.0,
        0.0,
        1.0
      ],
      "min": [
        -1.0,
        0.0,
        0.2360581010580063
      ],
      "type": "VEC3"
    },
    {
      "bufferView": 2,
      "byteOffset": 1911720,
      "componentType": 5126,
      "count": 4,
      "max": [
        0.0,
        1.0,
        -0.0
      ],
      "min": [
        0.0,
        1.0,
        -0.0
      ],
      "type": "VEC3"
    },
    {
      "bufferView": 1,
      "byteOffset": 637224,
      "componentType": 5126,
      "count": 4,
      "max": [
        1.0,
        0.7268242835998535
      ],
      "min": [
        0.0,
        0.0
      ],
      "type": "VEC2"
    },
    {
      "bufferView": 0,
      "byteOffset": 955488,
      "componentType": 5125,
      "count": 6,
      "type": "SCALAR"
    }
  ],
  "asset": {
    "extras": {
      "author": "nayangway (https://sketchfab.com/nayangway)",
      "license": "CC-BY-4.0 (http://creativecommons.org/licenses/by/4.0/)",
      "source": "https://sketchfab.com/3d-models/kayak-with-paddle-cda3354816af4a0aa1ca5cfee6c5dcd7",
      "title": "Kayak with Paddle"
    },
    "generator": "Sketchfab-15.19.0",
    "version": "2.0"
  },
  "bufferViews": [
    {
      "buffer": 0,
      "byteLength": 955512,
      "name": "floatBufferViews",
      "target": 34963
    },
    {
      "buffer": 0,
      "byteLength": 637256,
      "byteOffset": 955512,
      "byteStride": 8,
      "name": "floatBufferViews",
      "target": 34962
    },
    {
      "buffer": 0,
      "byteLength": 1911768,
      "byteOffset": 1592768,
      "byteStride": 12,
      "name": "floatBufferViews",
      "target": 34962
    }
  ],
  "buffers": [
    {
      "byteLength": 3504536,
      "uri": "scene.bin"
    }
  ],
  "materials": [
    {
      "alphaMode": "BLEND",
      "doubleSided": true,
      "name": "material_0",
      "pbrMetallicRoughness": {
        "baseColorFactor": [
          1.0,
          1.0,
          1.0,
          0.0
        ],
        "metallicFactor": 0.0,
        "roughnessFactor": 0.6
      }
    },
    {
      "doubleSided": true,
      "name": "Plastic_Kayak",
      "pbrMetallicRoughness": {
        "baseColorFactor": [
          0.7991027380144083,
          0.1651321945016675,
          0.0,
          1.0
        ],
        "metallicFactor": 0.0,
        "roughnessFactor": 0.25
      }
    },
    {
      "doubleSided": true,
      "name": "Metal",
      "pbrMetallicRoughness": {
        "baseColorFactor": [
          0.325987,
          0.325987,
          0.325987,
          1.0
        ],
        "roughnessFactor": 0.5
      }
    },
    {
      "doubleSided": true,
      "name": "Elastic_Cord",
      "pbrMetallicRoughness": {
        "baseColorFactor": [
          0.0,
          0.0,
          0.0,
          1.0
        ],
        "metallicFactor": 0.0,
        "roughnessFactor": 0.65
      }
    },
    {
      "doubleSided": true,
      "name": "Paddles",
      "pbrMetallicRoughness": {
        "baseColorFactor": [
          0.7999999999999999,
          0.16598800000000002,
          0.0,
          1.0
        ],
        "metallicFactor": 0.0,
        "roughnessFactor": 0.0
      }
    },
    {
      "doubleSided": true,
      "name": "Paddle_Handle",
      "pbrMetallicRoughness": {
        "baseColorFactor": [
          0.0,
          0.0,
          0.0,
          1.0
        ],
        "metallicFactor": 0.75
      }
    }
  ],
  "meshes": [
    {
      "name": "Object_0",
      "primitives": [
        {
          "attributes": {
            "NORMAL": 1,
            "POSITION": 0,
            "TEXCOORD_0": 2
          },
          "indices": 3,
          "material": 1,
          "mode": 4
        }
      ]
    },
    {
      "name": "Object_1",
      "primitives": [
        {
          "attributes": {
            "NORMAL": 5,
            "POSITION": 4,
            "TEXCOORD_0": 6
          },
          "indices": 7,
          "material": 2,
          "mode": 4
        }
      ]
    },
    {
      "name": "Object_2",
      "primitives": [
        {
          "attributes": {
            "NORMAL": 9,
            "POSITION": 8,
            "TEXCOORD_0": 10
          },
          "indices": 11,
          "material": 3,
          "mode": 4
        }
      ]
    },
    {
      "name": "Object_3",
      "primitives": [
        {
          "attributes": {
            "NORMAL": 13,
            "POSITION": 12,
            "TEXCOORD_0": 14
          },
          "indices": 15,
          "material": 3,
          "mode": 4
        }
      ]
    },
    {
      "name": "Object_4",
      "primitives": [
        {
          "attributes": {
            "NORMAL": 17,
            "POSITION": 16,
            "TEXCOORD_0": 18
          },
          "indices": 19,
          "material": 3,
          "mode": 4
        }
      ]
    },
    {
      "name": "Object_5",
      "primitives": [
        {
          "attributes": {
            "NORMAL": 21,
            "POSITION": 20,
            "TEXCOORD_0": 22
          },
          "indices": 23,
          "material": 4,
          "mode": 4
        }
      ]
    },
    {
      "name": "Object_6",
      "primitives": [
        {
          "attributes": {
            "NORMAL": 25,
            "POSITION": 24,
            "TEXCOORD_0": 26
          },
          "indices": 27,
          "material": 5,
          "mode": 4
        }
      ]
    },
    {
      "name": "Object_7",
      "primitives": [
        {
          "attributes": {
            "NORMAL": 29,
            "POSITION": 28,
            "TEXCOORD_0": 30
          },
          "indices": 31,
          "material": 2,
          "mode": 4
        }
      ]
    },
    {
      "name": "Object_8",
      "primitives": [
        {
          "attributes": {
            "NORMAL": 33,
            "POSITION": 32,
            "TEXCOORD_0": 34
          },
          "indices": 35,
          "material": 0,
          "mode": 4
        }
      ]
    }
  ],
  "nodes": [
    {
      "children": [
        1
      ],
      "matrix": [
        1.0,
        0.0,
        0.0,
        0.0,
        0.0,
        2.220446049250313e-16,
        -1.0,
        0.0,
        0.0,
        1.0,
        2.220446049250313e-16,
        0.0,
        0.0,
        0.0,
        0.0,
        1.0
      ],
      "name": "Sketchfab_model"
    },
    {
      "children": [
        2
      ],
      "name": "root"
    },
    {
      "children": [
        3,
        13,
        17
      ],
      "matrix": [
        1.0,
        0.0,
        0.0,
        0.0,
        0.0,
        2.220446049250313e-16,
        1.0,
        0.0,
        0.0,
        -1.0,
        2.220446049250313e-16,
        0.0,
        0.0,
        0.0,
        0.0,
        1.0
      ],
      "name": "GLTF_SceneRootNode"
    },
    {
      "children": [
        4,
        5,
        7,
        9,
        11
      ],
      "matrix": [
        0.49765491797418815,
        0.0,
        -0.048368924050288614,
        0.0,
        0.0,
        0.4999999403953552,
        0.0,
        0.0,
        0.048368924050288614,
        0.0,
        0.49765491797418815,
        0.0,
        -0.00994323380291462,
        0.19662289321422577,
        -0.014543836936354637,
        1.0
      ],
      "name": "Kayak_4"
    },
    {
      "mesh": 0,
      "name": "Object_4"
    },
    {
      "children": [
        6
      ],
      "matrix": [
        0.10816350273855022,
        0.0,
        -1.1183706831353684,
        0.0,
        0.0,
        1.1235893964767456,
        0.0,
        0.0,
        1.1183706831353684,
        0.0,
        0.10816350273855022,
        0.0,
        8.169561624526978e-06,
        0.0,
        0.0,
        1.0
      ],
      "name": "Attachments_0"
    },
    {
      "mesh": 1,
      "name": "Object_6"
    },
    {
      "children": [
        8
      ],
      "matrix": [
        2.3574033610295195e-07,
        1.1235893964767207,
        -2.2151188998733052e-08,
        0.0,
        -0.10816372296245803,
        4.474213841905969e-08,
        1.118370661836335,
        0.0,
        1.1183706618363107,
        -2.3251298156428998e-07,
        0.10816372296246501,
        0.0,
        0.0,
        0.0,
        0.0,
        1.0
      ],
      "name": "Elastic_1"
    },
    {
      "mesh": 2,
      "name": "Object_8"
    },
    {
      "children": [
        10
      ],
      "matrix": [
        0.9943385089976703,
        0.0,
        0.09681824110523873,
        0.0,
        -0.0,
        1.0,
        0.0,
        0.0,
        -0.08656010180797817,
        -0.0,
        0.8889858108130245,
        0.0,
        0.0,
        0.0,
        0.0,
        1.0
      ],
      "name": "Kayak.001_2"
    },
    {
      "mesh": 3,
      "name": "Object_10"
    },
    {
      "children": [
        12
      ],
      "matrix": [
        3.18330339096177e-08,
        1.1235895156860343,
        3.5060314783979416e-08,
        0.0,
        -0.10816372296246321,
        -3.1833020524824775e-08,
        1.1183706618363347,
        0.0,
        1.118370661836335,
        -3.506029990482592e-08,
        0.10816372296246227,
        0.0,
        4.556030035018921e-06,
        0.0,
        -2.780929207801819e-06,
        1.0
      ],
      "name": "Padding_3"
    },
    {
      "mesh": 4,
      "name": "Object_12"
    },
    {
      "children": [
        14,
        15,
        16
      ],
      "matrix": [
        0.0,
        0.0,
        -1.0,
        0.0,
        0.0,
        1.0,
        0.0,
        0.0,
        1.0,
        0.0,
        0.0,
        0.0,
        0.01652638614177704,
        0.17149758338928223,
        0.31611499190330505,
        1.0
      ],
      "name": "Paddle_5"
    },
    {
      "mesh": 5,
      "name": "Object_14"
    },
    {
      "mesh": 6,
      "name": "Object_15"
    },
    {
      "mesh": 7,
      "name": "Object_16"
    },
    {
      "children": [
        18
      ],
      "matrix": [
        0.6481217650009083,
        6.284973191605925e-06,
        0.7615367211714786,
        0.0,
        -0.6825901039961635,
        0.44338732791324975,
        0.580928934872808,
        0.0,
        -0.33765208078525755,
        -0.896330116311199,
        0.2873732676066765,
        0.0,
        -3.950592279434204,
        5.415019989013672,
        6.435657024383545,
        1.0
      ],
      "name": "Camera_7"
    },
    {
      "children": [
        19
      ],
      "matrix": [
        3.908595139136701,
        0.009155696130999966,
        0.003811925487375169,
        0.0,
        1.960956555555754e-09,
        3.843620281977458,
        -9.23182447449969,
        0.0,
        -0.025373580776275717,
        9.231794756352162,
        3.8436079089817774,
        0.0,
        0.03129864111542702,
        -12.218881607055664,
        -3.106978178024292,
        1.0
      ],
      "name": "Plane_6"
    },
    {
      "mesh": 8,
      "name": "Object_19"
    }
  ],
  "scene": 0,
  "scenes": [
    {
      "name": "Sketchfab_Scene",
      "nodes": [
        0
      ]
    }
  ]
}
