<svg xmlns="http://www.w3.org/2000/svg" version="1.1" xmlns:xlink="http://www.w3.org/1999/xlink" xmlns:svgjs="http://svgjs.dev/svgjs" width="1000" height="1215" viewBox="0 0 1000 1215"><g transform="matrix(1,0,0,1,0.4112592804175961,0.371559633027573)"><svg viewBox="0 0 269 327" data-background-color="#e65728" preserveAspectRatio="xMidYMid meet" height="1215" width="1000" xmlns="http://www.w3.org/2000/svg" xmlns:xlink="http://www.w3.org/1999/xlink"><g id="tight-bounds" transform="matrix(1,0,0,1,-0.1106287464323259,-0.10000000000002274)"><svg viewBox="0 0 269.2210721840411 327.2" height="327.2" width="269.2210721840411"><g><svg viewBox="0 0 395.52000000000004 480.69841989014793" height="327.2" width="269.2210721840411"><g transform="matrix(1,0,0,1,0,309.55541107322375)"><svg viewBox="0 0 395.52000000000004 171.14300881692418" height="171.14300881692418" width="395.52000000000004"><g id="textblocktransform"><svg viewBox="0 0 395.52000000000004 171.14300881692418" height="171.14300881692418" width="395.52000000000004" id="textblock"><g><svg viewBox="0 0 395.52000000000004 106.35626372089811" height="106.35626372089811" width="395.52000000000004"><g transform="matrix(1,0,0,1,0,0)"><svg width="395.52000000000004" viewBox="-0.7433815002441406 -31.57223892211914 154.51327514648438 41.54899978637695" height="106.35626372089811" data-palette-color="#f7ea2a"><path d="M9.996-7.793l20.862 12.257-4.723 1.061-19.517-11.288 3.35 14.918-3.659 0.822-7.052-31.408 3.659-0.822 3.242 14.441 12.164-17.9 4.634-1.041zM60.71 1.134l-3.762 0.458-4.532-7.769-16.677 2.03-2.536 8.629-3.812 0.464 10.157-33.664 3.226-0.392zM41.71-24.609l-5.036 17.215 14.046-1.71zM79.949-31.445l4.238-0.127-12.123 17.363 0.457 15.193-3.748 0.113-0.459-15.244-13.144-16.551 4.338-0.131 10.633 13.566zM112.244 2.163l-3.785-0.192-3.138-8.429-16.779-0.849-3.972 8.07-3.835-0.194 15.758-31.434 3.245 0.164zM97.921-26.447l-7.903 16.101 14.132 0.715zM125.733-12.491l15.063 18.936-4.788-0.708-14.156-17.549-2.236 15.126-3.71-0.548 4.708-31.844 3.71 0.548-2.165 14.641 17.785-12.332 4.699 0.695zM147.235 7.991l-3.672-0.761 6.535-31.52 3.672 0.762z" opacity="1" transform="matrix(1,0,0,1,0,0)" fill="#f7ea2a" class="wordmark-text-0" data-fill-palette-color="primary" id="text-0"></path></svg></g></svg></g><g transform="matrix(1,0,0,1,127.97557005269604,115.37948727187667)"><svg viewBox="0 0 139.56885989460795 55.763521545047496" height="55.763521545047496" width="139.56885989460795"><g transform="matrix(1,0,0,1,0,0)"><svg width="139.56885989460795" viewBox="2.4000000953674316 -32.79999923706055 108.98999786376953 43.54999923706055" height="55.763521545047496" data-palette-color="#ba3b0a"><path d="M21.75 0L18.9 0Q18.05 0 17.32-0.38 16.6-0.75 16.05-1.2L16.05-1.2Q15.4-1.75 14.85-2.4L14.85-2.4 8.4-10.7 7.35-9.65 7.35-3.15Q7.35-2.8 7.45-2.35 7.55-1.9 7.78-1.48 8-1.05 8.3-0.78 8.6-0.5 9-0.5L9-0.5 9 0 2.5 0 2.5-0.5Q2.85-0.5 3.15-0.78 3.45-1.05 3.65-1.45 3.85-1.85 3.95-2.3 4.05-2.75 4.05-3.15L4.05-3.15 4.05-28.6Q4.05-29.3 3.6-30 3.15-30.7 2.4-30.75L2.4-30.75 2.4-31.25 7.35-32.8 7.35-11.95 15.45-19.55Q15.7-19.8 15.7-20.15L15.7-20.15Q15.7-20.5 15.35-20.5L15.35-20.5 15.35-21 19.85-21 19.85-20.5Q19.55-20.5 19.23-20.35 18.9-20.2 18.6-20L18.6-20Q18.25-19.8 17.9-19.5L17.9-19.5 10.8-12.9 18.2-3.55Q18.85-2.65 19.5-2L19.5-2Q20.05-1.45 20.68-0.98 21.3-0.5 21.75-0.5L21.75-0.5 21.75 0ZM43.3 0L38.45 0 38.45-2.55 38.2-2.3Q36.95-1.05 35.32-0.35 33.7 0.35 31.4 0.35L31.4 0.35Q29.65 0.35 28.4-0.05 27.15-0.45 26.35-1.18 25.55-1.9 25.17-2.85 24.8-3.8 24.8-4.85L24.8-4.85Q24.8-6.55 25.72-7.85 26.65-9.15 28.4-10.15 30.15-11.15 32.67-11.98 35.2-12.8 38.45-13.6L38.45-13.6Q38.35-15.55 37.65-16.75 36.95-17.95 36-18.63 35.05-19.3 34-19.53 32.95-19.75 32.2-19.75L32.2-19.75Q30.9-19.75 29.92-19.35 28.95-18.95 28.22-18.32 27.5-17.7 27-16.98 26.5-16.25 26.2-15.6L26.2-15.6 25.75-15.6 25.75-19.25Q26.15-19.3 26.5-19.5 26.85-19.7 27.35-19.9L27.35-19.9Q28.1-20.2 29.4-20.78 30.7-21.35 33.05-21.35L33.05-21.35Q35.8-21.35 37.5-20.65 39.2-19.95 40.12-18.8 41.05-17.65 41.35-16.18 41.65-14.7 41.65-13.15L41.65-13.15 41.65-3.25Q41.65-2.25 42.1-1.38 42.55-0.5 43.3-0.5L43.3-0.5 43.3 0ZM37.9-4.15L38.45-4.75 38.45-11.9 37.95-11.8Q36.75-11.5 35.02-11 33.3-10.5 31.75-9.7 30.2-8.9 29.1-7.8 28-6.7 28-5.25L28-5.25Q28-3.65 29.3-2.6 30.6-1.55 32.7-1.55L32.7-1.55Q34.35-1.55 35.6-2.27 36.85-3 37.9-4.15L37.9-4.15ZM63.64-18.3L53.34 7.15Q52.64 9.25 51.57 10 50.49 10.75 49.34 10.75L49.34 10.75Q48.59 10.75 48.02 10.55 47.45 10.35 47.02 10.08 46.59 9.8 46.34 9.55 46.09 9.3 46.05 9.15L46.05 9.15 47.7 5.1Q47.95 6 48.2 6.45L48.2 6.45Q48.45 6.95 48.89 7.35 49.34 7.75 49.99 7.75L49.99 7.75Q51.2 7.75 51.89 6L51.89 6 54.34-0.15 46.3-18.35Q46.05-18.95 45.47-19.73 44.89-20.5 43.89-20.5L43.89-20.5 43.89-21 50.49-21 50.49-20.5Q50.3-20.5 49.99-20.15 49.7-19.8 49.7-19.25L49.7-19.25Q49.7-18.8 49.89-18.45L49.89-18.45 56.05-4.3 61.95-18.75Q62.09-19.1 62.09-19.4L62.09-19.4Q62.09-19.9 61.77-20.2 61.45-20.5 61.09-20.5L61.09-20.5 61.09-21 65.94-21 65.94-20.5Q65.14-20.5 64.57-19.83 64-19.15 63.64-18.3L63.64-18.3ZM87.09 0L82.24 0 82.24-2.55 81.99-2.3Q80.74-1.05 79.12-0.35 77.49 0.35 75.19 0.35L75.19 0.35Q73.44 0.35 72.19-0.05 70.94-0.45 70.14-1.18 69.34-1.9 68.97-2.85 68.59-3.8 68.59-4.85L68.59-4.85Q68.59-6.55 69.52-7.85 70.44-9.15 72.19-10.15 73.94-11.15 76.47-11.98 78.99-12.8 82.24-13.6L82.24-13.6Q82.14-15.55 81.44-16.75 80.74-17.95 79.79-18.63 78.84-19.3 77.79-19.53 76.74-19.75 75.99-19.75L75.99-19.75Q74.69-19.75 73.72-19.35 72.74-18.95 72.02-18.32 71.29-17.7 70.79-16.98 70.29-16.25 69.99-15.6L69.99-15.6 69.54-15.6 69.54-19.25Q69.94-19.3 70.29-19.5 70.64-19.7 71.14-19.9L71.14-19.9Q71.89-20.2 73.19-20.78 74.49-21.35 76.84-21.35L76.84-21.35Q79.59-21.35 81.29-20.65 82.99-19.95 83.92-18.8 84.84-17.65 85.14-16.18 85.44-14.7 85.44-13.15L85.44-13.15 85.44-3.25Q85.44-2.25 85.89-1.38 86.34-0.5 87.09-0.5L87.09-0.5 87.09 0ZM81.69-4.15L82.24-4.75 82.24-11.9 81.74-11.8Q80.54-11.5 78.82-11 77.09-10.5 75.54-9.7 73.99-8.9 72.89-7.8 71.79-6.7 71.79-5.25L71.79-5.25Q71.79-3.65 73.09-2.6 74.39-1.55 76.49-1.55L76.49-1.55Q78.14-1.55 79.39-2.27 80.64-3 81.69-4.15L81.69-4.15ZM111.39 0L108.54 0Q107.69 0 106.97-0.38 106.24-0.75 105.69-1.2L105.69-1.2Q105.04-1.75 104.49-2.4L104.49-2.4 98.04-10.7 96.99-9.65 96.99-3.15Q96.99-2.8 97.09-2.35 97.19-1.9 97.42-1.48 97.64-1.05 97.94-0.78 98.24-0.5 98.64-0.5L98.64-0.5 98.64 0 92.14 0 92.14-0.5Q92.49-0.5 92.79-0.78 93.09-1.05 93.29-1.45 93.49-1.85 93.59-2.3 93.69-2.75 93.69-3.15L93.69-3.15 93.69-28.6Q93.69-29.3 93.24-30 92.79-30.7 92.04-30.75L92.04-30.75 92.04-31.25 96.99-32.8 96.99-11.95 105.09-19.55Q105.34-19.8 105.34-20.15L105.34-20.15Q105.34-20.5 104.99-20.5L104.99-20.5 104.99-21 109.49-21 109.49-20.5Q109.19-20.5 108.87-20.35 108.54-20.2 108.24-20L108.24-20Q107.89-19.8 107.54-19.5L107.54-19.5 100.44-12.9 107.84-3.55Q108.49-2.65 109.14-2L109.14-2Q109.69-1.45 110.32-0.98 110.94-0.5 111.39-0.5L111.39-0.5 111.39 0Z" opacity="1" transform="matrix(1,0,0,1,0,0)" fill="#ba3b0a" class="slogan-text-1" data-fill-palette-color="secondary" id="text-1"></path></svg></g></svg></g></svg></g></svg></g><g transform="matrix(1,0,0,1,109.11788735880486,0)"><svg viewBox="0 0 177.2842252823903 276.9093882657833" height="276.9093882657833" width="177.2842252823903"><g><svg xmlns="http://www.w3.org/2000/svg" xmlns:xlink="http://www.w3.org/1999/xlink" version="1.1" x="0" y="0" viewBox="21.36663055419922 5.08599853515625 57.2674560546875 89.4489974975586" enable-background="new 0 0 100 100" xml:space="preserve" height="276.9093882657833" width="177.2842252823903" class="icon-icon-0" data-fill-palette-color="accent" id="icon-0"><g fill="#f7e811" data-fill-palette-color="accent"><path fill="#f7e811" d="M56.819 59.229c-0.754 7.292-2.388 14.323-4.855 20.897-0.14 0.372 0.049 0.788 0.42 0.927 0.084 0.031 0.17 0.046 0.253 0.046 0.292 0 0.567-0.178 0.676-0.468 2.513-6.689 4.174-13.841 4.94-21.254 0.041-0.396-0.248-0.75-0.643-0.791C57.212 58.546 56.86 58.833 56.819 59.229z" data-fill-palette-color="accent"></path><path fill="#f7e811" d="M42.824 41.041c0.364 0 0.678-0.276 0.715-0.646 0.754-7.293 2.389-14.324 4.855-20.896 0.142-0.373-0.048-0.789-0.42-0.928-0.374-0.139-0.788 0.048-0.929 0.422-2.512 6.687-4.173 13.839-4.939 21.254-0.041 0.396 0.246 0.75 0.643 0.791C42.772 41.04 42.798 41.042 42.824 41.041z" data-fill-palette-color="accent"></path><path fill="#f7e811" d="M47.417 30.007c0 1.541 1.252 2.793 2.792 2.794 1.541-0.001 2.794-1.253 2.794-2.794s-1.253-2.793-2.794-2.793C48.67 27.214 47.417 28.467 47.417 30.007zM50.209 28.655c0.746 0 1.354 0.606 1.353 1.353 0.001 0.746-0.605 1.352-1.352 1.352-0.746 0-1.353-0.606-1.353-1.352C48.857 29.262 49.465 28.655 50.209 28.655z" data-fill-palette-color="accent"></path><path fill="#f7e811" d="M78.496 13.25c-0.048-0.089-1.181-2.193-4.198-3.977-2.843-1.684-5.568-1.926-5.683-1.937-0.46-0.04-0.899 0.19-1.135 0.585l-2.412 4.081c-2.95 4.988-4.139 10.625-3.399 15.927l-1.156 1.954c-1.878-8.669-4.988-16.842-9.264-24.2-0.217-0.369-0.611-0.597-1.04-0.597-0.427 0-0.821 0.228-1.037 0.598-7.44 12.797-11.374 28.056-11.373 44.127-0.001 5.503 0.472 10.907 1.378 16.154l-2.911 4.922c-5.006 1.911-9.372 5.669-12.319 10.654l-2.413 4.081c-0.234 0.396-0.222 0.891 0.032 1.274 0.064 0.096 1.591 2.366 4.434 4.047 2.896 1.713 5.221 1.763 5.477 1.763 0.006 0 0.023 0 0.031 0 0.417-0.008 0.8-0.231 1.014-0.59l2.414-4.079c2.948-4.986 4.137-10.622 3.397-15.927l1.53-2.585c1.872 8.749 4.998 16.996 9.31 24.412 0.216 0.371 0.609 0.599 1.038 0.598 0.428 0 0.823-0.228 1.039-0.597 7.438-12.799 11.371-28.059 11.37-44.127 0.001-5.582-0.484-11.061-1.414-16.377l2.531-4.281c5.006-1.911 9.371-5.668 12.319-10.654l2.411-4.078C78.68 14.063 78.689 13.619 78.496 13.25zM32.867 86.816l-2.03 3.429c-0.735-0.114-2.048-0.438-3.615-1.367-1.553-0.918-2.643-2.059-3.208-2.732l2-3.381c2.045-3.461 4.839-6.258 8.053-8.158L30.995 79.8c-0.337 0.571-0.148 1.307 0.423 1.645 0.192 0.114 0.401 0.167 0.61 0.167 0.409 0 0.81-0.21 1.033-0.589l3.072-5.193C36.019 79.56 34.912 83.355 32.867 86.816zM40.2 49.812c0-14.88 3.455-29.031 10.009-41.074 4.022 7.39 6.873 15.577 8.478 24.236l-4.102 6.936c-1.224-1.408-2.728-2.237-4.375-2.237-4.201 0-7.491 5.333-7.49 12.139 0 2.86 0.584 5.454 1.57 7.506l-3.193 5.4C40.508 58.502 40.2 54.189 40.2 49.812zM55.298 49.812c0 5.279-2.329 9.739-5.089 9.739-1.182 0-2.285-0.825-3.16-2.178l7.472-12.634C55.009 46.227 55.299 47.966 55.298 49.812zM45.839 54.7c-0.451-1.449-0.718-3.119-0.718-4.888 0-5.279 2.33-9.738 5.089-9.738 1.143 0 2.208 0.773 3.068 2.045L45.839 54.7zM60.219 49.812c0 14.878-3.455 29.03-10.01 41.076-4.054-7.453-6.921-15.713-8.519-24.454l4.044-6.84c1.242 1.48 2.782 2.357 4.475 2.357 4.201 0 7.491-5.332 7.49-12.14 0.001-2.934-0.612-5.591-1.646-7.667l3.237-5.473C59.901 40.961 60.219 45.353 60.219 49.812zM73.988 17.279c-2.048 3.462-4.839 6.258-8.053 8.158l3.523-5.96c0.338-0.571 0.147-1.308-0.422-1.646-0.57-0.337-1.308-0.147-1.646 0.422l-3.526 5.961c0.116-3.73 1.222-7.525 3.27-10.988l2.002-3.384c0.857 0.169 2.374 0.573 3.938 1.498 1.557 0.921 2.481 1.923 2.938 2.512L73.988 17.279z" data-fill-palette-color="accent"></path></g></svg></g></svg></g><g></g></svg></g><defs></defs></svg><rect width="269.2210721840411" height="327.2" fill="none" stroke="none" visibility="hidden"></rect></g></svg></g></svg>